<!-- icon666.com - MILLIONS vector ICONS FREE -->
<svg version="1.1" id="Layer_1" xmlns="http://www.w3.org/2000/svg" x="0px"
     y="0px" viewBox="0 0 512 512" style="enable-background:new 0 0 512 512;" xml:space="preserve"><path style="fill:#EFEFEF;" d="M512,442.73c0,4.626-1.766,9.252-5.294,12.774c-3.53,3.528-8.151,5.294-12.774,5.294H18.071 c-4.626,0-9.247-1.766-12.78-5.294C1.766,451.985,0,447.356,0,442.73V143.361h512V442.73z"></path>
    <path style="fill:#E6E5E5;"
          d="M512,143.361H0V69.275c0-4.626,1.766-9.247,5.292-12.774c3.533-3.533,8.154-5.299,12.78-5.299 h475.858c4.626,0,9.244,1.766,12.774,5.297c3.528,3.528,5.294,8.151,5.294,12.774v74.089H512z"></path>
    <rect x="51.192" y="269.595" style="fill:#F67656;" width="153.626" height="153.595"></rect>
    <rect x="81.917" y="300.315" style="fill:#E66847;" width="92.16" height="92.16"></rect>
    <rect x="256" y="269.595" style="fill:#3F4A5A;" width="102.4" height="15.357"></rect>
    <g><rect x="256" y="300.315" style="fill:#D9D8D7;" width="204.8" height="15.36"></rect>
        <rect x="256" y="331.035" style="fill:#D9D8D7;" width="204.8" height="15.352"></rect>
        <rect x="256" y="361.755" style="fill:#D9D8D7;" width="204.8" height="15.36"></rect></g>
    <rect x="307.2" y="392.475" style="fill:#F67656;" width="102.4" height="30.715"></rect>
    <path style="fill:#90DEA9;"
          d="M0,143.361v63.007c0,14.136,11.466,25.605,25.608,25.605c14.126,0,25.582-11.466,25.582-25.605 v-63.007H0z"></path>
    <path style="fill:#71BF8C;"
          d="M51.192,143.361v63.007c0,14.136,11.466,25.605,25.608,25.605s25.608-11.466,25.608-25.605v-63.007 H51.192z"></path>
    <path style="fill:#90DEA9;"
          d="M102.408,143.361v63.007c0,14.136,11.441,25.605,25.6,25.605c14.126,0,25.6-11.466,25.6-25.605 v-63.007H102.408z"></path>
    <path style="fill:#71BF8C;"
          d="M153.608,143.361v63.007c0,14.136,11.459,25.605,25.592,25.605c14.147,0,25.608-11.466,25.608-25.605 v-63.007H153.608z"></path>
    <path style="fill:#90DEA9;"
          d="M204.808,143.361v63.007c0,14.136,11.459,25.605,25.6,25.605c14.134,0,25.592-11.466,25.592-25.605 v-63.007H204.808z"></path>
    <path style="fill:#71BF8C;"
          d="M256,143.361v63.007c0,14.136,11.466,25.605,25.6,25.605c14.141,0,25.605-11.466,25.605-25.605 v-63.007H256z"></path>
    <path style="fill:#90DEA9;"
          d="M307.205,143.361v63.007c0,14.136,11.464,25.605,25.6,25.605c14.139,0,25.6-11.466,25.6-25.605 v-63.007H307.205z"></path>
    <g><path style="fill:#71BF8C;" d="M358.405,143.361v63.007c0,14.136,11.464,25.605,25.6,25.605c14.136,0,25.595-11.469,25.595-25.605 v-63.007H358.405z"></path>
        <path style="fill:#71BF8C;"
              d="M460.805,143.361v63.007c0,14.136,11.464,25.605,25.6,25.605c14.136,0,25.595-11.469,25.595-25.605 v-63.007H460.805z"></path></g>
    <path style="fill:#90DEA9;"
          d="M409.6,143.361v63.007c0,14.136,11.466,25.605,25.605,25.605s25.6-11.466,25.6-25.605v-63.007H409.6z "></path>
    <circle style="fill:#E66847;" cx="45.174" cy="97.281" r="15.058"></circle>
    <circle style="fill:#F8C963;" cx="90.342" cy="97.281" r="15.06"></circle>
    <circle style="fill:#81CF9B;" cx="135.529" cy="97.281" r="15.058"></circle></svg>